<?xml version="1.0" encoding="UTF-8"?>
<svg width="112px" height="16px" viewBox="0 0 112 16" version="1.1" xmlns="http://www.w3.org/2000/svg" xmlns:xlink="http://www.w3.org/1999/xlink">
    <!-- Generator: sketchtool 52.6 (67491) - http://www.bohemiancoding.com/sketch -->
    <title>E0817EE0-9641-4499-940A-4870BA5AB9B2</title>
    <desc>Created with sketchtool.</desc>
    <g id="Page-1" stroke="none" stroke-width="1" fill="none" fill-rule="evenodd">
        <g id="hm_web_1440-main" transform="translate(-218.000000, -64.000000)" fill="#FFFFFF" fill-rule="nonzero">
            <path d="M225.395904,70.0423354 L225.395904,65.8945043 C225.395904,64.8460617 226.212428,64 227.224268,64 C228.236107,64 229.052632,64.8460617 229.052632,65.8945043 L229.052632,78.1054957 C229.052632,79.1539383 228.236107,80 227.224268,80 C226.212428,80 225.395904,79.1539383 225.395904,78.1054957 L225.395904,73.5365959 L221.656727,73.5365959 L221.656727,78.1054957 C221.656727,79.1539383 220.840203,80 219.828364,80 C218.816524,80 218,79.1539383 218,78.1054957 L218,65.8945043 C218,64.8460617 218.816524,64 219.828364,64 C220.840203,64 221.656727,64.8460617 221.656727,65.8945043 L221.656727,70.0423354 L225.395904,70.0423354 Z M237.203517,78.6565278 C236.930221,79.4435378 236.220108,80 235.374237,80 C234.322447,80 233.473684,79.1539383 233.473684,78.1054957 C233.473684,77.8557584 233.52244,77.6370566 233.631273,77.3387376 L237.834788,65.631627 C238.192317,64.6446988 239.057166,64 240.105263,64 C241.15336,64 242.01821,64.6446988 242.376244,65.6330286 L246.578347,77.3362321 C246.688087,77.6370566 246.736842,77.8557584 246.736842,78.1054957 C246.736842,79.1539383 245.888079,80 244.836289,80 C243.97851,80 243.263878,79.4399957 243.005058,78.6508031 L242.286909,76.503212 L240.105211,69.9728027 L237.203517,78.6565278 Z M250.688305,67.5174022 C249.72156,67.5174022 248.947368,66.744621 248.947368,65.7587011 C248.947368,64.7880864 249.727494,64 250.688305,64 L258.995906,64 C259.956716,64 260.736842,64.7880864 260.736842,65.7587011 C260.736842,66.744621 259.96265,67.5174022 258.995906,67.5174022 L256.729893,67.5174022 L256.729893,78.0929488 C256.729893,79.148335 255.886831,80 254.842105,80 C253.79738,80 252.954318,79.148335 252.954318,78.0929488 L252.954318,67.5174022 L250.688305,67.5174022 Z M268.105263,65.8945043 L268.105263,78.1054957 C268.105263,79.1539383 267.282602,80 266.263158,80 C265.243714,80 264.421053,79.1539383 264.421053,78.1054957 L264.421053,65.8945043 C264.421053,64.8460617 265.243714,64 266.263158,64 C267.282602,64 268.105263,64.8460617 268.105263,65.8945043 Z M282.859403,75.1187302 C282.446387,75.8833965 281.836555,76.2945957 281,76.2945957 C280.159232,76.2945957 279.536433,75.876973 279.138844,75.1154575 L277.683774,72.3758507 L277.683774,78.1054957 C277.683774,79.1539383 276.86121,80 275.841887,80 C274.822563,80 274,79.1539383 274,78.1054957 L274,65.8523974 C274,64.8250083 274.802095,64 275.80095,64 C276.610043,64 277.230825,64.4279416 277.703355,65.3271007 L281,71.5528696 L284.295872,65.328566 C284.769175,64.4279416 285.389957,64 286.19905,64 C287.197905,64 288,64.8250083 288,65.8523974 L288,78.1054957 C288,79.1539383 287.177437,80 286.158113,80 C285.13879,80 284.316226,79.1539383 284.316226,78.1054957 L284.316226,72.3758397 L282.859403,75.1187302 Z M296.150886,78.6565278 C295.87759,79.4435378 295.167477,80 294.321606,80 C293.269816,80 292.421053,79.1539383 292.421053,78.1054957 C292.421053,77.8557584 292.469808,77.6370566 292.578641,77.3387376 L296.782157,65.631627 C297.139685,64.6446988 298.004535,64 299.052632,64 C300.100728,64 300.965578,64.6446988 301.323612,65.6330286 L305.525715,77.3362321 C305.635455,77.6370566 305.684211,77.8557584 305.684211,78.1054957 C305.684211,79.1539383 304.835448,80 303.783658,80 C302.925879,80 302.211246,79.4399957 301.952426,78.6508031 L301.234526,76.5039548 L299.052842,70.0058713 L296.150886,78.6565278 Z M313.867449,74.4107303 L313.867449,78.1054957 C313.867449,79.1539383 313.027377,80 311.986356,80 C310.945336,80 310.105263,79.1539383 310.105263,78.1054957 L310.105263,65.8945043 C310.105263,64.8460617 310.945336,64 311.986356,64 C313.027377,64 313.867449,64.8460617 313.867449,65.8945043 L313.867449,70.0571464 L314.396636,69.7073917 C316.412702,68.3761129 317.076329,67.4148789 317.19318,65.8359727 C317.265774,64.8124174 318.076777,64 319.09385,64 C320.113955,64 320.974943,64.8351805 320.974943,65.8523974 L320.974057,65.9461908 C320.834047,68.3634835 319.880716,70.1313759 318.003265,71.6177349 L321.580406,77.0608913 C321.77757,77.3663829 321.894737,77.7394211 321.894737,78.1054957 C321.894737,79.1539383 321.054664,80 320.013644,80 C319.305488,80 318.742115,79.6290146 318.341297,79.0010733 L314.947145,73.6987461 L313.867449,74.4107303 Z M330,65.8945043 L330,78.1054957 C330,79.1539383 329.177339,80 328.157895,80 C327.13845,80 326.315789,79.1539383 326.315789,78.1054957 L326.315789,65.8945043 C326.315789,64.8460617 327.13845,64 328.157895,64 C329.177339,64 330,64.8460617 330,65.8945043 Z" id="Hatimaki"></path>
        </g>
    </g>
</svg>,26.1054957 L159.315789,13.8945043 C159.315789,12.8460617 160.13845,12 161.157895,12 C162.177339,12 163,12.8460617 163,13.8945043 Z" id="Hatimaki"></path>
                </g>
            </g>
        </g>
    </g>
</svg>