<?xml version="1.0" encoding="utf-8"?>
<!-- Generator: Adobe Illustrator 23.0.1, SVG Export Plug-In . SVG Version: 6.00 Build 0)  -->
<svg version="1.1"
	 id="Слой_1" xmlns:cc="http://creativecommons.org/ns#" xmlns:dc="http://purl.org/dc/elements/1.1/" xmlns:inkscape="http://www.inkscape.org/namespaces/inkscape" xmlns:rdf="http://www.w3.org/1999/02/22-rdf-syntax-ns#" xmlns:sodipodi="http://sodipodi.sourceforge.net/DTD/sodipodi-0.dtd" xmlns:svg="http://www.w3.org/2000/svg"
	 xmlns="http://www.w3.org/2000/svg" xmlns:xlink="http://www.w3.org/1999/xlink" x="0px" y="0px" viewBox="0 0 512 640"
	 style="enable-background:new 0 0 512 640;" xml:space="preserve">
<style type="text/css">
	.st0{opacity:0.8;}
	.st1{fill:#FFFFFF;}
</style>
<g transform="translate(-91.214475,-152.15558)" class="st0">
	<path class="st1" d="M195.4,152.2c-4.1,0-7.5,3.4-7.5,7.5c0,0.3,0,0.5,0,0.8l50,497c0.4,3.8,3.6,6.8,7.5,6.8H449
		c3.9,0,7.1-2.9,7.5-6.8l50-497c0.4-4.1-2.6-7.8-6.7-8.2c-0.2,0-0.5,0-0.8,0H195.4z M203.7,167.2h287l-12.1,120.1
		c-6.4,3.8-19.2,11-34.9,16.5v-18.7c0-4.1-3.4-7.5-7.5-7.5h-74.1c-4.1,0-7.5,3.4-7.5,7.5v6.5c-23.6-12.2-47.7-16.5-69.5-16.7
		c-30.2-0.3-55.8,7.1-69.4,12.1L203.7,167.2z M281.6,289.9c22.7-0.2,48.5,4.3,73,18.9v50.4c0,4.1,3.4,7.5,7.5,7.5h74.1
		c4.1,0,7.5-3.4,7.5-7.5v-39.5c1.1-0.4,2.2-0.7,3.3-1.1c11.7-4,22-8.9,29.8-13l-34.6,343.6h-190l-34.9-346.8
		C227.7,298.3,252,290.2,281.6,289.9z M369.7,292.6h59.1v15.7c-19.8,4.7-40.9,4.8-57.5-6.7c-0.5-0.4-1.1-0.7-1.6-1.1V292.6z
		 M243.2,311.6c-4.1,0-7.5,3.4-7.5,7.5v74.1c0,4.1,3.4,7.5,7.5,7.5h74.1c4.1,0,7.5-3.4,7.5-7.5v-74.1c0-4.1-3.4-7.5-7.5-7.5H243.2z
		 M369.7,318.2c18.7,9.9,39.9,9.6,59.1,5.5v28h-59.1V318.2z M250.7,326.6h59.1v59.1h-59.1V326.6z M321.9,409.1
		c-4.1,0-7.5,3.4-7.5,7.5v74.1c0,4.1,3.4,7.5,7.5,7.5H396c4.1,0,7.5-3.4,7.5-7.5v-74.1c0-4.1-3.4-7.5-7.5-7.5H321.9z M329.4,424.1
		h59.1v59.1h-59.1V424.1z"/>
</g>
</svg>
