<?xml version="1.0" encoding="utf-8"?>
<!-- Generator: Adobe Illustrator 23.0.1, SVG Export Plug-In . SVG Version: 6.00 Build 0)  -->
<svg version="1.1" id="Слой_1" xmlns="http://www.w3.org/2000/svg" xmlns:xlink="http://www.w3.org/1999/xlink" x="0px" y="0px"
	 viewBox="0 0 100 125" style="enable-background:new 0 0 100 125;" xml:space="preserve">
<style type="text/css">
	.st0{opacity:0.8;fill:#FFFFFF;}
</style>
<title>Icons_MinimalFood_Vineta</title>
<path class="st0" d="M95.8,36.4h-0.4c2.2-9.9-4-19.6-13.9-21.9c-3.6-0.8-7.3-0.5-10.7,0.8c0.3-4.5,0.2-8,0.2-8.9
	c0-1.1-0.8-2-1.9-2.2c-3.2-0.5-6.5-0.7-9.8-0.7C52,3.5,42.2,4.8,36.7,11c-1.9,2.1-3.5,4.6-4.5,7.3C22.9,14.7,8.8,13,6.7,12.8
	c-0.7-0.1-1.4,0.2-1.8,0.6c-0.5,0.5-0.7,1.2-0.6,1.8c0.8,7.1,2.2,14.2,4.1,21.1H4.2c-1.2,0-2.2,1-2.2,2.2c0,4.4,0.6,8.8,1.8,13
	c0,0.2,0.1,0.3,0.1,0.5c7.4,25.4,34.1,40,59.5,32.6C83.9,78.7,98,60,98,38.6C98,37.4,97,36.4,95.8,36.4z M77.4,18.6
	c7.6,0,13.8,6.2,13.8,13.8c0,1.3-0.2,2.7-0.6,4h-25c2.6-3.9,3.9-10.1,4.6-15.8C72.4,19.3,74.9,18.6,77.4,18.6z M36.3,20.3
	c0.8-2.3,2.1-4.5,3.8-6.3c4.3-4.9,12.8-6,19.1-6c2.4,0,4.8,0.1,7.2,0.4c0,2.8-0.1,6.6-0.5,10.5c0,0,0,0,0,0
	c-0.7,6.5-2.1,13.3-4.9,16.1c-0.5,0.5-1,0.9-1.5,1.3h-15c2.1-4.6,4.9-8.9,8.4-12.6c0.9-0.9,0.9-2.3,0-3.2c-0.9-0.9-2.3-0.9-3.2,0
	c-2.6,2.6-4.8,5.6-6.7,8.8c-0.1-0.2-0.1-0.4-0.2-0.5c0-0.1-0.1-0.2-0.1-0.3c-0.2-0.5-0.4-1-0.6-1.5c0,0,0-0.1-0.1-0.1
	c-0.3-0.5-0.5-1-0.8-1.5c-0.1-0.1-0.1-0.2-0.2-0.3c-0.3-0.5-0.6-0.9-1-1.4c-0.1-0.1-0.1-0.1-0.2-0.2c-0.4-0.5-0.8-0.9-1.2-1.3
	c0,0,0,0,0,0c-0.2-0.2-0.4-0.4-0.6-0.5c0,0-0.1-0.1-0.1-0.1C37.5,21.1,36.9,20.7,36.3,20.3z M9.1,17.6c6.5,0.9,17.4,2.9,23.4,5.7
	c0.1,0.1,0.2,0.1,0.2,0.1c1,0.5,2,1.1,2.9,1.9c0.3,0.3,0.6,0.7,0.9,1c0,0.1,0.1,0.1,0.1,0.2c0.3,0.3,0.5,0.7,0.8,1.1
	c0,0.1,0.1,0.1,0.1,0.2c0.2,0.4,0.4,0.8,0.6,1.1c0,0.1,0.1,0.1,0.1,0.2c0.2,0.4,0.4,0.8,0.5,1.3c0,0,0,0,0,0
	c0.1,0.4,0.3,0.9,0.4,1.3c0,0.1,0,0.1,0,0.2c0.1,0.4,0.2,0.9,0.2,1.3c0,0.1,0,0.2,0,0.2c0,0.4,0.1,0.9,0.1,1.3c0,0.1,0,0.1,0,0.2
	c0,0.5,0,0.9-0.1,1.4l0,0h-6.9c-1.8-1.5-7-5.9-8.6-7.2c-1-0.8-2.4-0.6-3.2,0.3c-0.8,1-0.6,2.4,0.3,3.2c0,0,0.1,0,0.1,0.1
	c0.8,0.6,2.6,2.1,4.4,3.6H13.1C11.3,30.2,9.9,24,9.1,17.6z M92.2,40.9L92.2,40.9L92.2,40.9h1.2c-0.1,2.7-0.5,5.4-1.2,8.1H7.7
	c-0.7-2.7-1.1-5.4-1.2-8.1H92.2z M50,82.1c-18.3,0-34.6-11.5-40.9-28.7h66.6C70.4,62.7,60.6,68.4,50,68.4c-1.2,0-2.2,1-2.2,2.2
	s1,2.2,2.2,2.2c13.1,0,25.1-7.5,30.8-19.4h10.1C84.6,70.7,68.3,82.1,50,82.1z"/>
</svg>
