<?xml version="1.0" encoding="utf-8"?>
<!-- Generator: Adobe Illustrator 23.0.1, SVG Export Plug-In . SVG Version: 6.00 Build 0)  -->
<svg version="1.1" id="Слой_1" xmlns="http://www.w3.org/2000/svg" xmlns:xlink="http://www.w3.org/1999/xlink" x="0px" y="0px"
	 viewBox="0 0 100 125" style="enable-background:new 0 0 100 125;" xml:space="preserve">
<style type="text/css">
	.st0{fill:#4CD9A5;}
</style>
<path class="st0" d="M95,22.4C95,16.6,90.4,12,84.6,12c-3.2,0-6.1,1.5-8.1,3.8l0,0l-37.4,46L23,44.3l0,0c-1.9-2.1-4.6-3.3-7.6-3.3
	C9.6,41,5,45.7,5,51.4c0,2.7,1.1,5.2,2.8,7l0,0L32,84.7l0,0c1.9,2.1,4.6,3.3,7.6,3.3c3.3,0,6.1-1.5,8.1-3.8l0,0l45-55.3l0,0
	C94.1,27.1,95,24.9,95,22.4z"/>
</svg>
