<?xml version="1.0" encoding="utf-8"?>
<!-- Generator: Adobe Illustrator 23.0.1, SVG Export Plug-In . SVG Version: 6.00 Build 0)  -->
<svg version="1.1" id="Слой_1" xmlns="http://www.w3.org/2000/svg" xmlns:xlink="http://www.w3.org/1999/xlink" x="0px" y="0px"
	 viewBox="0 0 6827 8192" style="enable-background:new 0 0 6827 8192;" xml:space="preserve">
<style type="text/css">
	.st0{fill-rule:evenodd;clip-rule:evenodd;fill:#D3132C;}
	.st1{fill:none;}
</style>
<g>
	<g>
		<path class="st0" d="M2414.7,3732.3c123.8-174.7,225.6-356.1,323.5-555.8c73.9-150.7,150.7-325.4,172.8-492.5
			c12.5-97,5.8-193.9-32.6-284.1c-718,389.7-1124.1-18.2-1274.8-229.4c-240.9,281.3-164.2,781.4-173.8,952.3
			c8.6,327.3-140.2,663.3-264.9,960c-62.4,148.8-122.9,290.9-160.3,416.6c-121.9,404.1,6.7,764.1,165.1,956.1
			c38.4,46.1,77.8,82.6,115.2,104.6c27.8,17.3,51.8,25.9,68.2,25c7.7-1,15.4-10.6,22.1-31.7c12.5-40.3,1-92.2-11.5-149.8
			c-32.6-149.8-73-329.3,116.2-603.8c140.2-203.5,261.1-322.5,453.1-510.7c0,0,24-23,25.9-25c185.3-182.4,332.1-354.2,456.9-530.9
			L2414.7,3732.3z"/>
		<path class="st0" d="M3033.8,1261.4L3033.8,1261.4z M1747.5,2052.4c111.4,161.3,433.9,502.1,1025.2,193
			c-35.5-36.5-91.2-94.1-136.3-157.4c-54.7-77.8-93.1-164.2-72-243.8c51.8-197.8,294.7-420.5,469.4-580.8l0,0l1-1l0,0l1-1l1-1l0,0
			l1-1l1-1l0,0c24-22.1,9.6-8.6,14.4-13.4c58.6-52.8,118.1-106.6,77.8-199.7c-1.9-4.8-4.8-9.6-6.7-13.4
			c-15.4-25.9-40.3-45.1-69.1-54.7c-29.8-9.6-64.3-9.6-97.9,5.8c-6.7,2.9-13.4,5.8-18.2,9.6c-156.5,93.1-310.1,208.3-435.8,340.8
			c-109.4,114.2-197.8,240.9-251.5,374.4c-32.6,81.6-58.6,135.4-84.5,171.8c-35.5,49.9-70.1,73.9-114.2,87.4
			c-40.3,12.5-82.6,14.4-123.8,23c-69.1,13.4-129.6,35.5-181.4,64.3v-1.9H1747.5z"/>
	</g>
</g>
<rect x="136.7" y="0" class="st1" width="6553.6" height="6553.6"/>
</svg>
