<?xml version="1.0" encoding="utf-8"?>
<!-- Generator: Adobe Illustrator 23.0.1, SVG Export Plug-In . SVG Version: 6.00 Build 0)  -->
<svg version="1.1" id="Слой_1" xmlns="http://www.w3.org/2000/svg" xmlns:xlink="http://www.w3.org/1999/xlink" x="0px" y="0px"
	 viewBox="0 0 16 20" style="enable-background:new 0 0 16 20;" xml:space="preserve">
<style type="text/css">
	.st0{fill:#FFFFFF;}
</style>
<g>
	<circle class="st0" cx="11" cy="10" r="4"/>
	<path class="st0" d="M1.5,5h7C8.8,5,9,4.8,9,4.5v-1C9,3.2,8.8,3,8.5,3h-7C1.2,3,1,3.2,1,3.5v1C1,4.8,1.2,5,1.5,5z"/>
	<path class="st0" d="M1.5,8h4.9C6.8,7.2,7.3,6.5,8,6H1.5C1.2,6,1,6.2,1,6.5v1C1,7.8,1.2,8,1.5,8z"/>
	<path class="st0" d="M6.4,12H1.5C1.2,12,1,12.2,1,12.5v1C1,13.8,1.2,14,1.5,14H8C7.3,13.5,6.8,12.8,6.4,12z"/>
	<path class="st0" d="M1.5,11h4.6C6,10.7,6,10.3,6,10s0-0.7,0.1-1H1.5C1.2,9,1,9.2,1,9.5v1C1,10.8,1.2,11,1.5,11z"/>
</g>
</svg>
