<?xml version="1.0" encoding="utf-8"?>
<!-- Generator: Adobe Illustrator 23.0.1, SVG Export Plug-In . SVG Version: 6.00 Build 0)  -->
<svg version="1.1" id="Слой_1" xmlns="http://www.w3.org/2000/svg" xmlns:xlink="http://www.w3.org/1999/xlink" x="0px" y="0px"
	 viewBox="0 0 24 30" style="enable-background:new 0 0 24 30;" xml:space="preserve">
<style type="text/css">
	.st0{fill:#FFFFFF;}
</style>
<g>
	<path class="st0" d="M19.8,16C19.7,16,19.7,16,19.8,16c-0.3,0-0.5-0.3-0.5-0.6l0.4-3.2c-0.1-0.1-0.2-0.2-0.2-0.4
		c0-0.3,0.2-0.5,0.5-0.5h0.3c0.1,0,0.3,0.1,0.4,0.2s0.1,0.3,0.1,0.4l-0.5,3.7C20.2,15.9,20,16,19.8,16z"/>
	<path class="st0" d="M18.7,24c-0.1,0-0.2,0-0.2-0.1c-3.9-2-8.1-2-12,0C6.3,24,6.2,24,6,23.9c-0.1-0.1-0.2-0.2-0.3-0.4L5,17.9
		c0-0.3,0.2-0.5,0.4-0.6c0.3,0,0.5,0.2,0.6,0.4l0.7,5c3.8-1.8,7.9-1.8,11.6,0l1-7.3c0-0.3,0.3-0.5,0.6-0.4c0.3,0,0.5,0.3,0.4,0.6
		l-1.1,7.9c0,0.2-0.1,0.3-0.3,0.4C18.8,24,18.8,24,18.7,24z"/>
	<path class="st0" d="M5.5,18.3c-0.2,0-0.5-0.2-0.5-0.4l-0.8-6c0-0.1,0-0.3,0.1-0.4s0.2-0.2,0.4-0.2H20c0.3,0,0.5,0.2,0.5,0.5
		s-0.2,0.5-0.5,0.5H5.2L6,17.7C6,18,5.8,18.3,5.5,18.3C5.5,18.3,5.5,18.3,5.5,18.3z"/>
	<path class="st0" d="M7.8,12.3c-0.2,0-0.4-0.1-0.5-0.3L5.6,7.2C5.5,7,5.6,6.7,5.9,6.6l1.8-0.7c0.1,0,0.3,0,0.4,0
		C8.2,6,8.3,6.1,8.4,6.2l2,5.4c0.1,0.3,0,0.5-0.3,0.6c-0.3,0.1-0.5,0-0.6-0.3L7.6,7L6.7,7.3l1.5,4.3c0.1,0.3,0,0.5-0.3,0.6
		C7.9,12.3,7.8,12.3,7.8,12.3z"/>
	<path class="st0" d="M6.6,7.4C6.4,7.4,6.2,7.2,6.1,7L4.4,2.3c0-0.1,0-0.3,0-0.4s0.2-0.2,0.3-0.3L6.5,1c0.3-0.1,0.5,0,0.6,0.3l2,5.4
		c0.1,0.3,0,0.5-0.3,0.6C8.6,7.4,8.3,7.3,8.2,7L6.4,2.1L5.5,2.4l1.5,4.3C7.1,7,7,7.2,6.8,7.3C6.7,7.4,6.6,7.4,6.6,7.4z"/>
	<path class="st0" d="M14.1,6.1c0,0-0.1,0-0.1,0c-0.3-0.1-0.4-0.3-0.4-0.6l1-5.1c0-0.1,0.1-0.2,0.2-0.3S15.1,0,15.3,0l1.9,0.4
		c0.3,0.1,0.4,0.3,0.4,0.6L17,4c-0.1,0.3-0.3,0.4-0.6,0.4c-0.3-0.1-0.4-0.3-0.4-0.6l0.5-2.5l-0.9-0.2l-0.9,4.6
		C14.5,6,14.3,6.1,14.1,6.1z"/>
	<path class="st0" d="M5.7,12.3c-0.2,0-0.4-0.1-0.5-0.3L2.7,5c0-0.1,0-0.3,0-0.4S2.9,4.4,3,4.3l1.8-0.7c0.3-0.1,0.5,0,0.6,0.3
		l2.8,7.6c0.1,0.3,0,0.5-0.3,0.6c-0.3,0.1-0.5,0-0.6-0.3L4.7,4.8L3.8,5.1l2.3,6.5c0.1,0.3,0,0.5-0.3,0.6C5.8,12.3,5.8,12.3,5.7,12.3
		z"/>
	<path class="st0" d="M12.5,12.3c-0.2,0-0.4-0.2-0.5-0.4l-1.8-7.7L9.3,4.4l1.7,7.3c0.1,0.3-0.1,0.5-0.4,0.6
		c-0.3,0.1-0.5-0.1-0.6-0.4L8.2,4.1c0-0.1,0-0.3,0.1-0.4s0.2-0.2,0.3-0.2l1.9-0.4C10.7,3,11,3.2,11.1,3.5l1.9,8.2
		c0.1,0.3-0.1,0.5-0.4,0.6C12.5,12.3,12.5,12.3,12.5,12.3z"/>
	<path class="st0" d="M16.7,12.3c0,0-0.1,0-0.1,0c-0.3-0.1-0.4-0.3-0.4-0.6l1.7-7.3l-0.9-0.2l-1.8,7.7c-0.1,0.3-0.3,0.4-0.6,0.4
		c-0.3-0.1-0.4-0.3-0.4-0.6l1.9-8.2c0.1-0.3,0.3-0.4,0.6-0.4l1.9,0.4c0.1,0,0.2,0.1,0.3,0.2S19,4,19,4.1l-1.8,7.8
		C17.1,12.1,16.9,12.3,16.7,12.3z"/>
	<path class="st0" d="M19.9,12.3c0,0-0.1,0-0.1,0c-0.3-0.1-0.4-0.3-0.4-0.6l0.8-3.5L19.3,8l-0.9,3.9c-0.1,0.3-0.3,0.4-0.6,0.4
		c-0.3-0.1-0.4-0.3-0.4-0.6l1-4.4C18.5,7,18.8,6.8,19,6.9l1.9,0.4c0.3,0.1,0.4,0.3,0.4,0.6l-0.9,4C20.3,12.1,20.1,12.3,19.9,12.3z"
		/>
	<path class="st0" d="M14.5,12.2c-0.3,0-0.5-0.2-0.5-0.5l-0.6-9.7l-1,0.1l0.6,9.5c0,0.3-0.2,0.5-0.5,0.5c-0.3,0-0.5-0.2-0.5-0.5
		l-0.7-10c0-0.1,0-0.3,0.1-0.4c0.1-0.1,0.2-0.2,0.3-0.2L13.8,1c0.2,0,0.5,0.2,0.5,0.5L15,11.7C15,12,14.8,12.2,14.5,12.2
		C14.5,12.2,14.5,12.2,14.5,12.2z"/>
	<g>
		<path class="st0" d="M19.8,16H5.2c-0.3,0-0.5-0.2-0.5-0.5S4.9,15,5.2,15h14.6c0.3,0,0.5,0.2,0.5,0.5S20,16,19.8,16z"/>
		<path class="st0" d="M19.5,18.1h-14c-0.3,0-0.5-0.2-0.5-0.5s0.2-0.5,0.5-0.5h14c0.3,0,0.5,0.2,0.5,0.5S19.8,18.1,19.5,18.1z"/>
	</g>
</g>
</svg>
